<svg width="56" height="56" viewBox="0 0 56 56" fill="none" xmlns="http://www.w3.org/2000/svg">
<rect x="4" y="4" width="48" height="48" rx="24" fill="#00A8CF" fill-opacity="0.2"/>
<rect x="4" y="4" width="48" height="48" rx="24" stroke="#00A8CF" stroke-opacity="0.1" stroke-width="8"/>
<path d="M38 32.92V35.92C38.0011 36.1985 37.9441 36.4742 37.8325 36.7294C37.7209 36.9845 37.5573 37.2136 37.3521 37.4019C37.1468 37.5901 36.9046 37.7335 36.6407 37.8227C36.3769 37.9119 36.0974 37.9451 35.82 37.92C32.7428 37.5856 29.787 36.5342 27.19 34.85C24.7738 33.3147 22.7253 31.2662 21.19 28.85C19.5 26.2412 18.4482 23.271 18.12 20.18C18.095 19.9035 18.1279 19.6248 18.2165 19.3616C18.3051 19.0985 18.4476 18.8567 18.6348 18.6516C18.822 18.4466 19.0498 18.2827 19.3038 18.1705C19.5578 18.0583 19.8323 18.0003 20.11 18H23.11C23.5953 17.9952 24.0658 18.1671 24.4338 18.4835C24.8017 18.8 25.0421 19.2395 25.11 19.72C25.2366 20.6801 25.4714 21.6227 25.81 22.53C25.9445 22.8879 25.9737 23.2769 25.8939 23.6509C25.8141 24.0249 25.6289 24.3681 25.36 24.64L24.09 25.91C25.5135 28.4136 27.5864 30.4865 30.09 31.91L31.36 30.64C31.6319 30.3711 31.9751 30.1859 32.3491 30.1061C32.7231 30.0263 33.1121 30.0555 33.47 30.19C34.3773 30.5286 35.3199 30.7634 36.28 30.89C36.7658 30.9585 37.2094 31.2032 37.5265 31.5775C37.8437 31.9518 38.0122 32.4296 38 32.92Z" stroke="#00A8CF" stroke-width="2" stroke-linecap="round" stroke-linejoin="round"/>
</svg>
