<svg width="28" height="24" viewBox="0 0 28 24" fill="none" xmlns="http://www.w3.org/2000/svg">
<path d="M10.87 3.42304C9.66015 4.88702 7.71934 7.23549 7.29531 10.0614C7.13028 11.1612 6.96524 13.1043 9.31238 13.5443C11.4589 13.9466 13.8966 17.577 10.9627 21.4265C9.51605 23.3246 3.92674 24.726 1.42746 18.8602C0.0216201 15.5606 -0.259545 7.42181 9.86249 1.26269C10.9468 0.602852 12.6334 0.896147 11.6962 2.36254C11.5248 2.63073 11.2297 2.98779 10.87 3.42304Z" fill="white"/>
<path d="M25.8398 3.42304C24.63 4.88702 22.6892 7.23549 22.2651 10.0614C22.1001 11.1612 21.9351 13.1043 24.2822 13.5443C26.4288 13.9466 28.8665 17.577 25.9325 21.4265C24.4859 23.3246 18.8966 24.726 16.3973 18.8602C14.9914 15.5606 14.7103 7.42181 24.8323 1.26269C25.9166 0.602852 27.6032 0.896147 26.666 2.36254C26.4946 2.63073 26.1995 2.98779 25.8398 3.42304Z" fill="white"/>
</svg>
