<svg width="80" height="89" viewBox="0 0 80 89" fill="none" xmlns="http://www.w3.org/2000/svg">
<path d="M49.2664 88.8615H24.8687C23.9992 88.8615 23.3001 88.1624 23.3001 87.2929V67.4645C19.123 63.1169 16.8384 57.4394 16.8384 51.421C16.8384 38.6339 27.2385 28.2338 40.0256 28.2338C52.8126 28.2338 63.2128 38.6339 63.2128 51.421V55.905L68.7197 64.6684C69.0096 65.1116 69.0266 65.6743 68.822 66.1516C68.6004 66.629 68.1571 66.97 67.6456 67.0553L63.1957 67.7714V74.1478C63.1957 77.6429 60.3484 80.4902 56.8533 80.4902H50.8349V87.2929C50.8349 88.1624 50.1359 88.8615 49.2664 88.8615ZM26.4372 85.7244H47.6978V78.9217C47.6978 78.0522 48.3969 77.3531 49.2664 77.3531H56.8533C58.6265 77.3531 60.0586 75.9039 60.0586 74.1478V66.4415C60.0586 65.6743 60.6042 65.0264 61.3714 64.89L64.7983 64.3444L60.2973 57.1837C60.1439 56.928 60.0586 56.6381 60.0586 56.3482V51.4039C60.0586 40.3559 51.0736 31.3538 40.0085 31.3538C28.9434 31.3538 19.9585 40.3389 19.9585 51.4039C19.9585 56.8256 22.0725 61.8893 25.9428 65.6913C26.2496 65.9812 26.4201 66.3904 26.4201 66.8166V85.7244H26.4372ZM47.4421 26.1197C47.1863 26.1197 46.9477 26.0515 46.709 25.9492L39.9744 22.4029L33.2399 25.9492C32.7114 26.239 32.0635 26.1879 31.5861 25.8298C31.1087 25.4718 30.87 24.8921 30.9553 24.2954L32.234 16.7937L26.7782 11.4743C26.352 11.0651 26.1985 10.4342 26.3861 9.87162C26.5736 9.30899 27.068 8.88274 27.6477 8.79749L35.1836 7.70631L38.5594 0.88655C38.8151 0.358019 39.3606 0 39.9744 0C40.5882 0 41.1167 0.340969 41.3895 0.88655L44.7482 7.70631L52.2841 8.79749C52.8638 8.88274 53.3582 9.30899 53.5457 9.87162C53.7333 10.4342 53.5799 11.0651 53.1536 11.4743L47.6978 16.7937L48.9936 24.2954C49.0959 24.8751 48.8572 25.4718 48.3628 25.8298C48.09 26.0344 47.766 26.1367 47.4421 26.1367V26.1197ZM39.9744 19.0612C40.2302 19.0612 40.4688 19.1294 40.7075 19.2317L45.362 21.6698L44.4755 16.4867C44.3902 15.9753 44.5607 15.4638 44.9187 15.0887L48.6867 11.4231L43.4866 10.6729C42.9751 10.6047 42.5318 10.2808 42.3102 9.82047L39.9915 5.09775L37.6727 9.82047C37.4511 10.2808 37.0078 10.6047 36.4963 10.6729L31.2963 11.4231L35.0642 15.0887C35.4222 15.4468 35.6098 15.9582 35.5075 16.4867L34.6209 21.6698L39.2754 19.2317C39.497 19.1124 39.7528 19.0612 40.0085 19.0612H39.9915H39.9744ZM17.6227 35.207C17.367 35.207 17.1282 35.1388 16.8895 35.0365L11.4849 32.1893L6.08022 35.0365C5.55169 35.3093 4.90381 35.2582 4.42642 34.9172C3.94904 34.5591 3.71036 33.9794 3.7956 33.3827L4.83564 27.3643L0.470951 23.1019C0.0447163 22.6757 -0.108695 22.0619 0.0788484 21.4823C0.266392 20.9196 0.760808 20.4934 1.34049 20.4252L7.37599 19.5386L10.0868 14.0658C10.3426 13.5372 10.8881 13.1792 11.5019 13.1792C12.1157 13.1792 12.6443 13.5202 12.917 14.0658L15.6279 19.5386L21.6634 20.4252C22.2431 20.5104 22.7375 20.9196 22.925 21.4823C23.1126 22.0449 22.9591 22.6757 22.5329 23.1019L18.1682 27.3643L19.2083 33.3827C19.3106 33.9624 19.0719 34.5591 18.5775 34.9172C18.3047 35.1218 17.9807 35.2241 17.6568 35.2241H17.6397L17.6227 35.207ZM4.92087 23.0508L7.61465 25.6764C7.97269 26.0344 8.16025 26.5459 8.05795 27.0745L7.42713 30.7741L10.7518 29.0181C11.2121 28.7794 11.7577 28.7794 12.218 29.0181L15.5427 30.7741L14.9118 27.0745C14.8265 26.563 14.9971 26.0515 15.3551 25.6764L18.0489 23.0508L14.3321 22.5052C13.8206 22.437 13.3773 22.113 13.1557 21.6527L11.5019 18.294L9.83111 21.6527C9.59241 22.113 9.16617 22.437 8.65469 22.5052L4.93794 23.0508H4.95495H4.92087ZM62.3262 35.207C62.0023 35.207 61.6783 35.1047 61.4055 34.9001C60.9281 34.5421 60.6895 33.9624 60.7747 33.3657L61.8147 27.3472L57.4501 23.0849C57.0238 22.6587 56.8704 22.0449 57.0579 21.4652C57.2454 20.9026 57.7399 20.4763 58.3196 20.4081L64.355 19.5386L67.0659 14.0658C67.3217 13.5372 67.8672 13.1962 68.481 13.1962C69.0948 13.1962 69.6233 13.5372 69.8961 14.0658L72.607 19.5386L78.6595 20.4081C79.2392 20.4934 79.7336 20.9026 79.9212 21.4652C80.1087 22.0278 79.9553 22.6587 79.529 23.0849L75.1644 27.3472L76.2044 33.3657C76.3067 33.9454 76.068 34.5421 75.5736 34.9001C75.0791 35.2582 74.4483 35.2923 73.9198 35.0195L68.5151 32.1722L63.1105 35.0195C62.8718 35.1388 62.6331 35.1899 62.3774 35.1899H62.3603L62.3262 35.207ZM68.464 28.8476C68.7197 28.8476 68.9584 28.9158 69.1971 29.0181L72.5217 30.7571L71.8738 27.0574C71.7886 26.5459 71.9591 26.0344 72.3171 25.6593L75.0109 23.0338L71.2942 22.4882C70.7827 22.42 70.3394 22.096 70.1177 21.6357L68.4469 18.2599L66.7931 21.6357C66.5545 22.096 66.1282 22.42 65.6167 22.4882L61.9 23.0338L64.5938 25.6593C64.9518 26.0174 65.1394 26.5459 65.0371 27.0574L64.4062 30.7571L67.7308 29.0181C67.9525 28.8987 68.2082 28.8476 68.464 28.8476Z" fill="white"/>
</svg>
