<svg width="80" height="81" viewBox="0 0 80 81" fill="none" xmlns="http://www.w3.org/2000/svg">
<path d="M39.9859 61.3682C28.2229 61.3682 18.646 51.7772 18.646 40.0142C18.646 28.2511 28.2229 18.6602 39.9859 18.6602C51.749 18.6602 61.3258 28.2511 61.3258 40.0142C61.3258 51.7772 51.749 61.3682 39.9859 61.3682ZM39.9859 20.2539C29.0973 20.2539 20.2539 29.1256 20.2539 40.0001C20.2539 50.8745 29.1114 59.7462 39.9859 59.7462C50.8604 59.7462 59.7179 50.8745 59.7179 40.0001C59.7179 29.1256 50.8604 20.2539 39.9859 20.2539Z" fill="white"/>
<path d="M19.4641 40.6349C19.0127 40.6349 18.6601 40.2823 18.6601 39.8309C18.646 34.1892 20.8463 28.8295 24.866 24.7815C28.8858 20.7054 34.2454 18.4487 39.9436 18.4346H40C45.6559 18.4346 51.0014 20.6631 55.0353 24.6828C59.0691 28.7167 61.3258 34.0622 61.34 39.704C61.34 39.9155 61.2553 40.113 61.1002 40.2681C60.9591 40.4092 60.7476 40.5079 60.536 40.5079L19.4641 40.6349ZM39.9436 20.0284C34.6827 20.0425 29.732 22.1299 26.0085 25.8958C22.4824 29.4501 20.4796 34.0904 20.2821 39.027L59.7179 38.9141C59.2525 28.4064 50.5783 20.0284 40 20.0284H39.9436Z" fill="white"/>
<path d="M39.8731 60.9873C34.2737 60.9873 28.9845 58.8011 24.9507 54.8518C20.8604 50.8321 18.5896 45.4865 18.5614 39.8166C18.5614 39.3652 18.914 39.0126 19.3653 39.0126L60.4373 38.6882C60.8745 38.6882 61.2412 39.0408 61.2412 39.4922C61.2835 45.1621 59.0974 50.55 55.0635 54.6403C51.0579 58.7164 45.7123 60.9732 40.0564 61.0155C40.0141 60.9873 39.9436 60.9873 39.8872 60.9873M20.1834 40.5923C20.4232 45.543 22.4965 50.1833 26.079 53.7094C29.8449 57.4188 34.7955 59.4358 40.0423 59.3794C45.2892 59.3511 50.2116 57.2496 53.9211 53.4837C57.4471 49.8871 59.45 45.2327 59.6051 40.2679L20.1693 40.5923H20.1834Z" fill="white"/>
<path d="M40.0988 31.6928H39.9718C34.4288 31.6646 29.182 29.5066 25.2045 25.6561C24.8801 25.3458 24.8801 24.838 25.1904 24.5136C25.5007 24.1892 26.0085 24.1893 26.3329 24.4995C30 28.0821 34.8519 30.0708 39.9718 30.099H40.0847C45.1763 30.099 50.0141 28.1526 53.6954 24.6547C54.0198 24.3585 54.5275 24.3726 54.8378 24.6829C55.1481 25.0073 55.134 25.5151 54.8096 25.8254C50.8322 29.6194 45.6277 31.7069 40.1129 31.7069" fill="white"/>
<path d="M54.1185 55.7405C53.9069 55.7405 53.6954 55.6559 53.5402 55.5008C49.9859 51.8195 45.1904 49.6616 40.0705 49.4782C34.9506 49.2807 30.0141 51.0579 26.1777 54.4853C25.8392 54.7814 25.3455 54.7532 25.0352 54.4288C24.7532 54.0903 24.7673 53.5967 25.1058 53.2864C29.2525 49.5769 34.598 47.6587 40.1269 47.8703C45.6559 48.0819 50.8322 50.395 54.6827 54.3724C54.993 54.6968 54.9929 55.2046 54.6685 55.5149C54.5275 55.67 54.33 55.7547 54.1185 55.7547" fill="white"/>
<path d="M40.0564 60.9874C39.6051 60.9874 39.2525 60.6348 39.2525 60.1835L39.182 19.4641C39.182 19.0128 39.5346 18.6602 39.9859 18.6602C40.4373 18.6602 40.7899 19.0128 40.7899 19.4641L40.8463 60.1835C40.8463 60.6348 40.4937 60.9874 40.0423 60.9874" fill="white"/>
<path d="M39.9859 60.9872C39.8449 60.9872 39.6757 60.9449 39.5487 60.8603C32.8773 56.5867 28.7448 48.5189 28.7448 39.8306C28.7448 31.1423 32.8773 23.1028 39.5487 18.801C39.8167 18.6318 40.1552 18.6318 40.4091 18.801C47.0804 23.1028 51.213 31.1565 51.213 39.8306C51.213 48.5048 47.0804 56.5584 40.4091 60.8603C40.2821 60.9449 40.1129 60.9872 39.9718 60.9872M39.9718 20.423C34.0057 24.5133 30.3385 31.8899 30.3385 39.8165C30.3385 47.7432 34.0057 55.1621 39.9718 59.2101C45.938 55.1198 49.6051 47.7432 49.6051 39.8165C49.6051 31.8899 45.938 24.4851 39.9718 20.423Z" fill="white"/>
<path d="M40.4373 5.89564C38.8153 5.89564 37.4895 4.56984 37.4895 2.94783C37.4895 1.32583 38.8153 0 40.4373 0C42.0593 0 43.3851 1.32583 43.3851 2.94783C43.3851 4.56984 42.0593 5.89564 40.4373 5.89564ZM40.4373 1.5938C39.7039 1.5938 39.0833 2.2003 39.0833 2.94783C39.0833 3.69536 39.6898 4.28774 40.4373 4.28774C41.1848 4.28774 41.7913 3.68126 41.7913 2.94783C41.7913 2.2144 41.1848 1.5938 40.4373 1.5938Z" fill="white"/>
<path d="M14.1044 16.4459C13.3569 16.4459 12.5952 16.1638 12.017 15.5855C11.4528 15.0213 11.1566 14.2879 11.1566 13.4981C11.1566 12.7082 11.4669 11.9607 12.017 11.4106C12.5811 10.8465 13.3287 10.5362 14.1326 10.5503C14.9225 10.5503 15.6559 10.8747 16.206 11.4247C16.756 11.9889 17.0522 12.7223 17.0522 13.5122C17.0522 14.302 16.7419 15.0496 16.1918 15.5996C15.6136 16.1638 14.866 16.4459 14.1044 16.4459ZM14.1044 12.1299C13.7377 12.1299 13.3992 12.271 13.1453 12.5249C12.8914 12.7787 12.7645 13.1173 12.7645 13.484C12.7645 13.8507 12.9055 14.1892 13.1453 14.4431C13.6531 14.9508 14.5416 14.9508 15.0494 14.4431C15.3033 14.1892 15.4302 13.8507 15.4302 13.484C15.4302 13.1173 15.2892 12.7787 15.0494 12.5249C14.8096 12.271 14.4711 12.1299 14.1044 12.1299Z" fill="white"/>
<path d="M2.94782 42.5245C1.32581 42.5245 0 41.1987 0 39.5767C0 37.9547 1.32581 36.6289 2.94782 36.6289C4.56982 36.6289 5.89563 37.9547 5.89563 39.5767C5.89563 41.1987 4.56982 42.5245 2.94782 42.5245ZM2.94782 38.2227C2.21439 38.2227 1.5938 38.8292 1.5938 39.5767C1.5938 40.3243 2.20028 40.9166 2.94782 40.9166C3.69535 40.9166 4.30184 40.3102 4.30184 39.5767C4.30184 38.8433 3.69535 38.2227 2.94782 38.2227Z" fill="white"/>
<path d="M13.4979 68.8575C12.7504 68.8575 11.9888 68.5754 11.4105 67.9971C10.2539 66.8405 10.2539 64.9647 11.4105 63.8081C12.567 62.6515 14.4429 62.6515 15.5995 63.8081C16.756 64.9647 16.756 66.8405 15.5995 67.9971C15.0071 68.5754 14.2596 68.8575 13.4979 68.8575ZM13.4979 64.5556C13.1453 64.5556 12.8068 64.6826 12.5388 64.9364C12.0029 65.4724 12.0029 66.3187 12.5388 66.8405C13.0466 67.3483 13.9352 67.3483 14.4429 66.8405C14.9507 66.3328 14.9507 65.4442 14.4429 64.9364C14.189 64.6826 13.8505 64.5556 13.4979 64.5556Z" fill="white"/>
<path d="M39.5769 80.0284C37.9549 80.0284 36.6291 78.7026 36.6291 77.0806C36.6291 75.4586 37.9549 74.1328 39.5769 74.1328C41.1989 74.1328 42.5247 75.4586 42.5247 77.0806C42.5247 78.7026 41.1989 80.0284 39.5769 80.0284ZM39.5769 75.7266C38.8434 75.7266 38.2229 76.3331 38.2229 77.0806C38.2229 77.8282 38.8293 78.4206 39.5769 78.4206C40.3244 78.4206 40.9309 77.8141 40.9309 77.0806C40.9309 76.3472 40.3244 75.7266 39.5769 75.7266Z" fill="white"/>
<path d="M65.8956 69.4922C65.0917 69.4922 64.3583 69.1678 63.8082 68.6178C63.2581 68.0536 62.9619 67.3202 62.9619 66.5303C62.9619 65.7405 63.2722 64.9929 63.8223 64.4429C64.9789 63.2863 66.8547 63.2863 68.0113 64.4429C68.5755 65.007 68.8717 65.7405 68.8717 66.5303C68.8717 67.3202 68.5614 68.0677 68.0113 68.6178C67.4189 69.1819 66.6855 69.4922 65.8956 69.4922ZM65.8956 65.1763C65.543 65.1763 65.2045 65.3032 64.9366 65.5571C64.6827 65.811 64.5557 66.1495 64.5557 66.5162C64.5557 66.8829 64.6968 67.2214 64.9366 67.4753C65.1904 67.7292 65.5148 67.8702 65.8816 67.8702C66.2483 67.8702 66.5868 67.7292 66.8406 67.4753C67.0945 67.2214 67.2215 66.8829 67.2215 66.5162C67.2215 66.1495 67.0804 65.811 66.8406 65.5571C66.5868 65.3032 66.2483 65.1763 65.8956 65.1763Z" fill="white"/>
<path d="M77.0522 43.3993C75.4302 43.3993 74.1044 42.0735 74.1044 40.4515C74.1044 38.8295 75.4302 37.5037 77.0522 37.5037C78.6742 37.5037 80 38.8295 80 40.4515C80 42.0735 78.6742 43.3993 77.0522 43.3993ZM77.0522 39.0974C76.3188 39.0974 75.6982 39.7039 75.6982 40.4515C75.6982 41.199 76.3046 41.7914 77.0522 41.7914C77.7997 41.7914 78.4062 41.1849 78.4062 40.4515C78.4062 39.718 77.7997 39.0974 77.0522 39.0974Z" fill="white"/>
<path d="M66.5021 17.0662C65.7546 17.0662 64.993 16.7841 64.4147 16.2058C63.2581 15.0493 63.2581 13.1734 64.4147 12.0168C65.5713 10.8603 67.4471 10.8603 68.6037 12.0168C69.1679 12.5669 69.4641 13.3003 69.4641 14.0902C69.4641 14.88 69.1538 15.6276 68.6037 16.2058C68.0113 16.7841 67.2497 17.0662 66.5021 17.0662ZM66.5021 12.7644C66.1495 12.7644 65.811 12.8913 65.543 13.1452C65.0353 13.6529 65.0353 14.5415 65.543 15.0493C66.0508 15.557 66.9394 15.557 67.4471 15.0493C67.701 14.7954 67.8421 14.4428 67.8421 14.0902C67.8421 13.7376 67.701 13.3991 67.4471 13.1452C67.2074 12.8913 66.8547 12.7644 66.5021 12.7644Z" fill="white"/>
<path d="M40.4372 14.048C39.9859 14.048 39.6333 13.6954 39.6333 13.244V5.07762C39.6333 4.62628 39.9859 4.27368 40.4372 4.27368C40.8886 4.27368 41.2412 4.62628 41.2412 5.07762V13.244C41.2412 13.6954 40.8886 14.048 40.4372 14.048Z" fill="white"/>
<path d="M21.4105 21.5796C21.1989 21.5796 20.9874 21.495 20.8463 21.3398L15.0776 15.5852C14.7532 15.2749 14.7532 14.7672 15.0776 14.4428C15.3879 14.1184 15.8957 14.1184 16.2201 14.4428L21.9888 20.1974C22.3132 20.5076 22.3132 21.0154 21.9888 21.3398C21.8336 21.495 21.622 21.5796 21.4105 21.5796Z" fill="white"/>
<path d="M13.2581 40.3806H5.11987C4.66853 40.3806 4.31592 40.028 4.31592 39.5767C4.31592 39.1253 4.66853 38.7727 5.11987 38.7727H13.2581C13.7094 38.7727 14.062 39.1253 14.062 39.5767C14.062 40.028 13.7094 40.3806 13.2581 40.3806Z" fill="white"/>
<path d="M15.0212 65.1763C14.8096 65.1763 14.5981 65.0916 14.457 64.9365C14.1326 64.6121 14.1326 64.1184 14.457 63.794L20.2116 58.0394C20.536 57.715 21.0297 57.715 21.3541 58.0394C21.6785 58.3638 21.6785 58.8575 21.3541 59.1819L15.5995 64.9365C15.4443 65.0916 15.2328 65.1763 15.0212 65.1763Z" fill="white"/>
<path d="M39.5769 75.7265C39.1255 75.7265 38.7729 75.3739 38.7729 74.9225V66.7561C38.7729 66.3047 39.1255 65.9521 39.5769 65.9521C40.0282 65.9521 40.3808 66.3047 40.3808 66.7561V74.9225C40.3808 75.3739 40.0282 75.7265 39.5769 75.7265Z" fill="white"/>
<path d="M64.3723 65.811C64.1608 65.811 63.9492 65.7264 63.8082 65.5712L58.0395 59.8167C57.7151 59.5064 57.7151 58.9986 58.0395 58.6742C58.3498 58.3498 58.8575 58.3498 59.1819 58.6742L64.9506 64.4288C65.275 64.7391 65.275 65.2468 64.9506 65.5712C64.7955 65.7264 64.5839 65.811 64.3723 65.811Z" fill="white"/>
<path d="M74.8943 41.2414H66.7561C66.3047 41.2414 65.9521 40.8888 65.9521 40.4375C65.9521 39.9862 66.3047 39.6335 66.7561 39.6335H74.8943C75.3456 39.6335 75.6982 39.9862 75.6982 40.4375C75.6982 40.8888 75.3456 41.2414 74.8943 41.2414Z" fill="white"/>
<path d="M59.2243 22.2004C59.0127 22.2004 58.8011 22.1158 58.6601 21.9607C58.3357 21.6363 58.3357 21.1426 58.6601 20.8182L64.4147 15.0636C64.7391 14.7392 65.2327 14.7392 65.5571 15.0636C65.8815 15.388 65.8815 15.8817 65.5571 16.2061L59.8025 21.9607C59.6474 22.1158 59.4358 22.2004 59.2243 22.2004Z" fill="white"/>
</svg>
