<svg width="80" height="70" viewBox="0 0 80 70" fill="none" xmlns="http://www.w3.org/2000/svg">
<path d="M39.1721 30.919H41.1194V34.4296C41.1194 35.1847 41.5698 35.8602 42.2719 36.1517C42.5104 36.2444 42.7488 36.2974 42.9873 36.2974C43.4774 36.2974 43.9411 36.112 44.2988 35.7543L49.1208 30.9323H68.21C70.6608 30.9323 72.6479 28.9452 72.6479 26.4945V4.43783C72.6479 1.98709 70.6608 0 68.21 0H39.1721C36.7213 0 34.7343 1.98709 34.7343 4.43783V26.4945C34.7343 28.9452 36.7213 30.9323 39.1721 30.9323M36.7346 4.43783C36.7346 3.08661 37.8341 2.00032 39.1721 2.00032H68.21C69.548 2.00032 70.6475 3.09986 70.6475 4.43783V26.4945C70.6475 27.8457 69.548 28.9319 68.21 28.9319H48.6968C48.4319 28.9319 48.1802 29.0379 47.9947 29.2234L43.1198 34.0984V29.9255C43.1198 29.3691 42.6693 28.9187 42.113 28.9187H39.1589C37.8209 28.9187 36.7214 27.8192 36.7214 26.4812V4.42457L36.7346 4.43783Z" fill="white"/>
<path d="M62.7123 14.5587H60.712V21.7917H47.8887V8.96836H58.1553V6.96802H45.8883V23.792H62.7123V14.5587Z" fill="white"/>
<path d="M51.6907 13.2604L50.2733 14.6779L54.4726 18.864L63.3615 9.9619L61.9573 8.54443L54.4726 16.0291L51.6907 13.2604Z" fill="white"/>
<path d="M12.0815 27.6999C12.0815 31.886 15.486 35.2906 19.6721 35.2906C23.8583 35.2906 27.2761 31.886 27.2761 27.6999V24.3219H29.9255V22.3215H28.7465C28.7465 22.3215 28.7465 22.2818 28.7465 22.2685C28.7465 17.4731 24.7591 13.5784 19.8576 13.5784C14.9561 13.5784 10.9687 17.4731 10.9687 22.2685C10.9687 22.2818 10.9687 22.3083 10.9687 22.3215H9.88246V24.3219H12.0815V27.6999ZM18.97 15.6317V18.4666H20.9704V15.6714C24.216 16.1881 26.7197 18.9038 26.7594 22.1891H12.969C13.0088 18.8243 15.6185 16.0556 18.97 15.6317ZM25.2757 27.6999C25.2757 30.7865 22.772 33.2903 19.6721 33.2903C16.5723 33.2903 14.0686 30.7865 14.0686 27.6999V24.3219H25.2625V27.6999H25.2757Z" fill="white"/>
<path d="M29.7003 67.4815V64.7658H34.9462C35.3436 64.7658 35.688 64.5406 35.8602 64.183L38.3242 58.8046H39.8344C41.7022 58.8046 43.4509 57.7183 44.2722 56.0359L44.8551 54.8304C45.3717 53.7839 45.3055 52.5651 44.6829 51.5716C44.1662 50.737 43.3052 50.2071 42.3514 50.0614L44.0735 46.3124C44.2192 46.0077 44.1928 45.6368 44.0073 45.3586C43.8218 45.0672 43.5039 44.895 43.1595 44.895H36.2311L29.3293 39.8081C27.1436 38.1919 24.6663 37.3441 22.1361 37.3308H11.6973C7.84234 37.3308 4.70275 40.4704 4.70275 44.3386V53.3865C4.70275 56.3936 6.37189 59.0165 8.83588 60.381H8.63718V67.508H0V69.5083H80V67.508H29.7003V67.4815ZM42.9872 52.6314C43.2389 53.042 43.2655 53.5189 43.0535 53.9561L42.4706 55.1616C41.9805 56.1684 40.9472 56.8043 39.8344 56.8043H35.0257L37.3174 51.9955H41.848C42.3249 51.9955 42.7488 52.2339 43.0005 52.6314M40.1921 49.9952H36.6948C36.3106 49.9952 35.953 50.2204 35.794 50.5648L32.5617 57.3739C32.416 57.6786 32.4425 58.0495 32.6147 58.3409C32.7869 58.6324 33.118 58.8046 33.4625 58.8046H36.1517L34.3368 62.7655H22.2421L29.5413 46.8953H41.636L40.2053 49.9952H40.1921ZM6.70309 53.36V44.3121C6.70309 41.5567 8.94186 39.3047 11.6973 39.3047H22.1891C24.2424 39.3047 26.309 40.0333 28.1504 41.3977L32.8796 44.8817H28.8789C28.4815 44.8817 28.1371 45.1069 27.9649 45.4646L26.0175 49.6905V44.9877H24.0172V53.1083H13.9228V45.0672H11.9225V54.1018C11.9225 54.6582 12.3729 55.1086 12.916 55.1086H23.5271L21.3545 59.8379V59.361H12.6908C9.37902 59.361 6.68984 56.6718 6.68984 53.36M10.6243 61.0831C11.2866 61.2553 11.9755 61.3613 12.6908 61.3613H20.6524L19.7384 63.3484C19.5926 63.6531 19.6191 64.024 19.8046 64.3022C19.99 64.5936 20.308 64.7658 20.6524 64.7658H27.6999V67.4815H10.6375V61.0699L10.6243 61.0831Z" fill="white"/>
</svg>
