<svg width="80" height="74" viewBox="0 0 80 74" fill="none" xmlns="http://www.w3.org/2000/svg">
<path d="M40.4156 41.448C38.1933 40.2798 35.9852 39.1116 33.7771 37.9434C30.2726 36.0915 26.7538 34.2395 23.2493 32.3876C22.4516 31.9602 21.6395 31.5328 20.8418 31.1054C20.9842 31.3476 21.1124 31.5898 21.2549 31.8177V11.1612C20.8418 11.4033 20.4286 11.6455 20.0013 11.8735C22.2236 13.0416 24.4317 14.2098 26.6399 15.3779C30.1444 17.2299 33.6631 19.0819 37.1676 20.9481C37.9654 21.3755 38.7774 21.8028 39.5751 22.2302C39.4327 21.988 39.3045 21.7459 39.162 21.5179V42.1745C39.162 43.2572 40.8288 43.2572 40.8288 42.1745V21.5179C40.8288 21.233 40.6721 20.9338 40.4156 20.8056C38.1933 19.6375 35.9852 18.4693 33.7771 17.3011C30.2726 15.4492 26.7538 13.5972 23.2493 11.731C22.4516 11.3036 21.6395 10.8763 20.8418 10.4631C20.2862 10.164 19.5881 10.5344 19.5881 11.1754V31.832C19.5881 32.1169 19.7448 32.4161 20.0013 32.5443C22.2236 33.7124 24.4317 34.8806 26.6399 36.0488C30.1444 37.9007 33.6631 39.7527 37.1676 41.6047C37.9654 42.032 38.7774 42.4594 39.5751 42.8868C40.5154 43.3854 41.3559 41.9608 40.4014 41.448" fill="white"/>
<path d="M59.1632 31.1052C56.9409 32.2734 54.7328 33.4415 52.5246 34.6097C49.0202 36.4617 45.5014 38.3137 41.9969 40.1656C41.1992 40.593 40.3871 41.0204 39.5894 41.4478C40.0025 41.69 40.4156 41.9321 40.843 42.1601V21.5035C40.7005 21.7457 40.5723 21.9879 40.4299 22.2158C42.6522 21.0476 44.8603 19.8794 47.0685 18.7113C50.573 16.8593 54.0917 15.0074 57.5962 13.1412C58.394 12.7138 59.206 12.2864 60.0037 11.8733C59.5906 11.6311 59.1775 11.3889 58.7501 11.161V31.8175C58.7501 32.9002 60.4169 32.9002 60.4169 31.8175V11.161C60.4169 10.5057 59.7188 10.1495 59.1632 10.4487C56.9409 11.6168 54.7328 12.785 52.5246 13.9532C49.0202 15.8051 45.5014 17.6571 41.9969 19.5233C41.1992 19.9507 40.3871 20.3781 39.5894 20.8054C39.3329 20.9336 39.1762 21.2328 39.1762 21.5177V42.1743C39.1762 42.8296 39.8743 43.1857 40.4299 42.8866C42.6522 41.7184 44.8603 40.5503 47.0685 39.3821C50.573 37.5301 54.0917 35.6782 57.5962 33.8262C58.394 33.3988 59.206 32.9714 60.0037 32.5583C60.9582 32.0597 60.1177 30.6209 59.1775 31.1195" fill="white"/>
<path d="M59.1632 10.4346C56.9409 11.6028 54.7328 12.7709 52.5247 13.9391C49.0202 15.7911 45.5014 17.6431 41.9969 19.5093C41.1992 19.9366 40.3871 20.364 39.5894 20.7914H40.4299C38.2075 19.6232 35.9994 18.455 33.7913 17.2869C30.2868 15.4207 26.7823 13.583 23.2636 11.7168C22.4658 11.2894 21.6538 10.862 20.856 10.4488V11.8877C23.0784 10.7195 25.2865 9.55134 27.4946 8.38317C30.9991 6.53121 34.5178 4.67925 38.0223 2.82728C38.8201 2.3999 39.6321 1.97255 40.4299 1.55942H39.5894C41.8117 2.72758 44.0198 3.89573 46.228 5.0639C49.7325 6.91587 53.2512 8.76783 56.7557 10.6198C57.5535 11.0472 58.3655 11.4746 59.1632 11.8877C60.1177 12.3863 60.9582 10.9475 60.0038 10.4488C57.7671 9.26644 55.5305 8.08404 53.2939 6.90163C49.7894 5.04966 46.2707 3.19769 42.7662 1.33148C41.9969 0.918347 41.2277 0.490947 40.4441 0.106308C39.9883 -0.107381 39.6749 0.0351164 39.3187 0.234559C38.9198 0.448248 38.5209 0.64765 38.122 0.861339C34.7743 2.62783 31.4265 4.39433 28.0787 6.16082C25.4432 7.55692 22.7507 8.89604 20.1295 10.3491C20.0867 10.3776 20.044 10.3919 20.0013 10.4204C19.4599 10.7053 19.4599 11.5743 20.0013 11.8592C22.2379 13.0416 24.4745 14.224 26.7111 15.4064C30.2156 17.2584 33.7343 19.1104 37.2388 20.9766C38.0081 21.3897 38.7774 21.8171 39.5609 22.2017C40.0168 22.4154 40.3302 22.273 40.7006 22.0735C41.0994 21.8598 41.4983 21.6461 41.8972 21.4467C45.245 19.6802 48.5928 17.9137 51.9406 16.1329C54.5761 14.7369 57.2685 13.3977 59.8898 11.9447C59.9325 11.9162 59.9753 11.9019 60.018 11.8734C60.944 11.3748 60.1035 9.93598 59.1632 10.4346Z" fill="white"/>
<path d="M49.362 5.27729C47.1539 6.44546 44.9316 7.61365 42.7235 8.78182C39.219 10.6338 35.7002 12.4857 32.1957 14.3519C31.398 14.7793 30.5859 15.2067 29.7882 15.6341C28.8337 16.1327 29.6742 17.5715 30.6287 17.0729C32.8368 15.9047 35.0592 14.7366 37.2673 13.5684C40.7718 11.7165 44.2763 9.86448 47.795 7.99827C48.5928 7.57089 49.4048 7.14352 50.2026 6.71614C51.157 6.21754 50.3165 4.77869 49.362 5.27729Z" fill="white"/>
<path d="M20.8275 72.4469C18.6194 71.2788 16.397 70.1106 14.1889 68.9424C10.6844 67.0905 7.16569 65.2385 3.6612 63.3866C2.86343 62.9592 2.05141 62.5318 1.25364 62.1187C1.3961 62.3608 1.52431 62.603 1.66677 62.8309V42.1744C1.25364 42.4166 0.84051 42.6587 0.413133 42.8867C2.62125 44.0548 4.84361 45.223 7.05172 46.3912C10.5562 48.2432 14.075 50.0951 17.5794 51.9614C18.3772 52.3887 19.1892 52.8161 19.987 53.2292C19.8445 52.987 19.7163 52.7449 19.5739 52.5169V73.1592C19.5739 74.2419 21.2406 74.2419 21.2406 73.1592V52.5169C21.2406 52.232 21.0839 51.9328 20.8275 51.8046C18.6194 50.6365 16.397 49.4683 14.1889 48.3001C10.6844 46.4482 7.16569 44.5962 3.6612 42.73C2.86343 42.3026 2.05141 41.8752 1.25364 41.4621C0.698051 41.1772 0 41.5333 0 42.1744V62.8309C0 63.1159 0.156706 63.415 0.413133 63.5432C2.62125 64.7114 4.84361 65.8796 7.05172 67.0478C10.5562 68.8997 14.075 70.7517 17.5794 72.6037C18.3772 73.031 19.1892 73.4584 19.987 73.8858C20.9272 74.3986 21.7677 72.9598 20.8133 72.4469" fill="white"/>
<path d="M39.5894 62.1043C37.367 63.2724 35.1589 64.4406 32.9508 65.6087C29.4463 67.4607 25.9276 69.3127 22.4231 71.1646C21.6253 71.592 20.8133 72.0194 20.0155 72.4325C20.4286 72.6747 20.856 72.9169 21.2692 73.1448V52.5025C21.1267 52.7447 20.9985 52.9868 20.856 53.2148C23.0784 52.0466 25.2865 50.8785 27.4946 49.7103C30.9991 47.8583 34.5178 46.0064 38.0223 44.1401C38.8201 43.7128 39.6321 43.2854 40.4299 42.8723C40.0168 42.6301 39.6036 42.3879 39.1763 42.16V62.8166C39.1763 63.8992 40.843 63.8992 40.843 62.8166V42.16C40.843 41.5047 40.145 41.1485 39.5894 41.4477C37.367 42.6159 35.1589 43.784 32.9508 44.9522C29.4463 46.8041 25.9276 48.6561 22.4231 50.5223C21.6253 50.9497 20.8133 51.3771 20.0155 51.8045C19.7591 51.9327 19.6024 52.2318 19.6024 52.5167V73.159C19.6024 73.8144 20.3004 74.1705 20.856 73.8713C23.0784 72.7032 25.2865 71.535 27.4946 70.3669C30.9991 68.5149 34.5178 66.6629 38.0223 64.811C38.8201 64.3836 39.6321 63.9562 40.4299 63.5431C41.3844 63.0445 40.5439 61.6056 39.6036 62.1043" fill="white"/>
<path d="M39.5894 41.448C37.367 42.6162 35.1589 43.7843 32.9508 44.9525C29.4463 46.8045 25.9276 48.6564 22.4231 50.5227C21.6253 50.95 20.8133 51.3774 20.0155 51.8048H20.856C18.6479 50.6366 16.4256 49.4685 14.2174 48.3003C10.7129 46.4341 7.20845 44.5964 3.68971 42.7302C2.89194 42.3028 2.07993 41.8754 1.28216 41.4622V42.9011C3.50452 41.7329 5.71264 40.5648 7.92075 39.3966C11.4252 37.5446 14.9297 35.6927 18.4485 33.8265C19.2462 33.3991 20.0583 32.9717 20.856 32.5586H20.0155C22.2379 33.7267 24.446 34.8949 26.6541 36.0631C30.1586 37.915 33.6773 39.767 37.1818 41.619C37.9796 42.0463 38.7916 42.4737 39.5894 42.9011C40.5439 43.3997 41.3844 41.9751 40.4299 41.4622C38.1933 40.2798 35.9567 39.1117 33.7201 37.915C30.2156 36.0631 26.6969 34.2111 23.1924 32.3449C22.4231 31.9317 21.6538 31.5044 20.8703 31.1197C20.4144 30.9061 20.101 31.0485 19.7449 31.248C19.346 31.4616 18.9471 31.6753 18.5482 31.8748C15.2004 33.6413 11.8526 35.422 8.50483 37.1885C5.86934 38.5846 3.17686 39.9237 0.555615 41.391C0.512877 41.4195 0.470139 41.4338 0.427401 41.4622C-0.113943 41.7472 -0.113943 42.6162 0.427401 42.9011C2.66401 44.0835 4.90062 45.2659 7.13723 46.4483C10.6417 48.3145 14.1605 50.1523 17.6649 52.0185C18.4342 52.4316 19.2035 52.859 19.987 53.2436C20.4429 53.4573 20.7563 53.3149 21.1267 53.1154C21.5256 52.9017 21.9245 52.688 22.3234 52.4886C25.6712 50.7221 29.0189 48.9414 32.3667 47.1749C35.0022 45.7788 37.6947 44.4397 40.3159 42.9724C40.3587 42.9439 40.4014 42.9296 40.4442 42.9011C41.3701 42.4025 40.5296 40.9636 39.5894 41.4622" fill="white"/>
<path d="M29.7882 36.2909C27.5801 37.4591 25.3577 38.6272 23.1496 39.7954C19.6451 41.6474 16.1264 43.4993 12.6219 45.3656C11.8241 45.7929 11.0121 46.2203 10.2143 46.6477C9.25985 47.1463 10.1004 48.5851 11.0548 48.0865C13.2629 46.9184 15.4853 45.7502 17.6934 44.582C21.1979 42.73 24.7024 40.8781 28.2211 39.0118C29.0189 38.5845 29.8309 38.1571 30.6287 37.7297C31.5832 37.2169 30.7427 35.7781 29.7882 36.2909Z" fill="white"/>
<path d="M60.0037 72.4469C57.7814 71.2788 55.5733 70.1106 53.3652 68.9424C49.8607 67.0905 46.3419 65.2385 42.8374 63.3866C42.0397 62.9592 41.2276 62.5318 40.4299 62.1187C40.5723 62.3608 40.7005 62.603 40.843 62.8309V42.1744C40.4299 42.4166 40.0167 42.6587 39.5894 42.8867C41.8117 44.0548 44.0198 45.223 46.228 46.3912C49.7325 48.2432 53.2512 50.0951 56.7557 51.9614C57.5535 52.3887 58.3655 52.8161 59.1632 53.2292C59.0208 52.987 58.8926 52.7449 58.7501 52.5169V73.1592C58.7501 74.2419 60.4169 74.2419 60.4169 73.1592V52.5169C60.4169 52.232 60.2602 51.9328 60.0037 51.8046C57.7814 50.6365 55.5733 49.4683 53.3652 48.3001C49.8607 46.4482 46.3419 44.5962 42.8374 42.73C42.0397 42.3026 41.2276 41.8752 40.4299 41.4621C39.8743 41.1772 39.1762 41.5333 39.1762 42.1744V62.8309C39.1762 63.1159 39.3329 63.415 39.5894 63.5432C41.8117 64.7114 44.0198 65.8796 46.228 67.0478C49.7325 68.8997 53.2512 70.7517 56.7557 72.6037C57.5535 73.031 58.3655 73.4584 59.1632 73.8858C60.0892 74.3986 60.944 72.9598 59.9895 72.4469" fill="white"/>
<path d="M78.7371 62.1043C76.529 63.2724 74.3066 64.4406 72.0985 65.6087C68.594 67.4607 65.0753 69.3127 61.5708 71.1646C60.773 71.592 59.961 72.0194 59.1632 72.4325C59.5764 72.6747 59.9895 72.9169 60.4169 73.1448V52.5025C60.2744 52.7447 60.1462 52.9868 60.0037 53.2148C62.2118 52.0466 64.4342 50.8785 66.6423 49.7103C70.1468 47.8583 73.6656 46.0064 77.17 44.1401C77.9678 43.7128 78.7798 43.2854 79.5776 42.8723C79.1645 42.6301 78.7513 42.3879 78.324 42.16V62.8166C78.324 63.8992 79.9907 63.8992 79.9907 62.8166V42.16C79.9907 41.5047 79.2927 41.1485 78.7371 41.4477C76.529 42.6159 74.3066 43.784 72.0985 44.9522C68.594 46.8041 65.0753 48.6561 61.5708 50.5223C60.773 50.9497 59.961 51.3771 59.1632 51.8045C58.9068 51.9327 58.7501 52.2318 58.7501 52.5167V73.159C58.7501 73.8144 59.4481 74.1705 60.0037 73.8713C62.2118 72.7032 64.4342 71.535 66.6423 70.3669C70.1468 68.5149 73.6656 66.6629 77.17 64.811C77.9678 64.3836 78.7798 63.9562 79.5776 63.5431C80.5321 63.0445 79.6916 61.6056 78.7513 62.1043" fill="white"/>
<path d="M78.7371 41.462C76.529 42.6302 74.3066 43.7983 72.0985 44.9665C68.594 46.8185 65.0753 48.6705 61.5708 50.5367C60.773 50.964 59.961 51.3914 59.1632 51.8188H60.0037C57.7814 50.6506 55.5733 49.4825 53.3651 48.3143C49.8606 46.4481 46.3419 44.6104 42.8374 42.7442C42.0396 42.3168 41.2276 41.8894 40.4299 41.4763V42.9151C42.6522 41.7469 44.8603 40.5788 47.0684 39.4106C50.5729 37.5587 54.0917 35.7066 57.5962 33.8547C58.3939 33.4273 59.206 33 60.0037 32.5868H59.1632C61.3713 33.755 63.5937 34.9231 65.8018 36.0913C69.3063 37.9433 72.825 39.7952 76.3295 41.6615C77.1273 42.0888 77.9393 42.5162 78.7371 42.9436C79.6916 43.4422 80.5321 42.0176 79.5776 41.5047C77.341 40.3223 75.1044 39.1399 72.8678 37.9575C69.3633 36.1055 65.8445 34.2536 62.3401 32.3874C61.5708 31.9742 60.8015 31.5469 60.018 31.1622C59.5621 30.9485 59.2487 31.091 58.8783 31.2904C58.4794 31.5041 58.0805 31.7036 57.6817 31.9173C54.3339 33.6838 50.9861 35.4502 47.6383 37.2167C45.0028 38.6128 42.3103 39.952 39.7033 41.405C39.6606 41.4335 39.6178 41.4478 39.5751 41.4763C39.0338 41.7612 39.0338 42.6302 39.5751 42.9151C41.8117 44.0975 44.0483 45.2799 46.2849 46.4623C49.7894 48.3285 53.3082 50.1805 56.8126 52.0325C57.5819 52.4456 58.3512 52.873 59.1347 53.2576C59.5906 53.4713 59.904 53.3288 60.2744 53.1294C60.6733 52.9157 61.0722 52.702 61.4711 52.5026C64.8188 50.7361 68.1666 48.9696 71.5002 47.1889C74.1357 45.7928 76.8281 44.4537 79.4351 43.0006C79.4779 42.9721 79.5206 42.9578 79.5634 42.9293C80.5463 42.4165 79.6916 40.9777 78.7513 41.4905" fill="white"/>
<path d="M68.9502 36.2909C66.7421 37.4591 64.5197 38.6272 62.3116 39.7954C58.8071 41.6474 55.2884 43.4993 51.7839 45.3656C50.9861 45.7929 50.1741 46.2203 49.3763 46.6477C48.4218 47.1463 49.2623 48.5851 50.2168 48.0865C52.4249 46.9184 54.6473 45.7502 56.8554 44.582C60.3599 42.73 63.8644 40.8781 67.3831 39.0118C68.1809 38.5845 68.9929 38.1571 69.7907 37.7297C70.7452 37.2169 69.9047 35.7781 68.9502 36.2909Z" fill="white"/>
</svg>
