<svg width="88" height="69" viewBox="0 0 88 69" fill="none" xmlns="http://www.w3.org/2000/svg">
<path fill-rule="evenodd" clip-rule="evenodd" d="M0.5 58.1514C0.5 64.1396 4.80026 69 10.109 69C27.7065 69 67.8354 69 67.8354 69C68.6636 69 69.3359 68.2413 69.3359 67.3065V6.67578C69.3359 5.74097 68.6636 4.98228 67.8354 4.98228H15.4267V1.6935C15.4267 0.758688 14.7545 0 13.9263 0C13.9263 0 11.6995 0 9.16969 0C6.87096 0 4.66535 1.03303 3.03883 2.8654C1.41232 4.70116 0.5 7.19061 0.5 9.78844V58.1514ZM74.6055 18.1001C74.5485 18.2322 74.5035 18.3745 74.4795 18.5235C74.4585 18.6421 74.4495 18.7572 74.4525 18.8724V63.9195C74.4525 65.2675 74.9266 66.558 75.7699 67.5131C76.6131 68.4648 77.7596 69 78.954 69C80.2384 69 81.7388 69 83.0262 69C84.2206 69 85.3639 68.4648 86.2102 67.5131C87.0535 66.558 87.5277 65.2675 87.5277 63.9195V18.8724C87.5277 18.7572 87.5186 18.6421 87.5006 18.5235C87.4736 18.3745 87.4316 18.2322 87.3716 18.1001L82.348 5.96112C82.1019 5.36501 81.5707 4.98228 80.9885 4.98228C80.4064 4.98228 79.8752 5.36501 79.6291 5.96112L74.6055 18.1001ZM15.4267 8.36928V49.3825C15.4267 50.3207 14.7545 51.076 13.9263 51.076H9.76698C6.30688 51.076 3.50095 54.2428 3.50095 58.148V58.1548C3.50095 62.2734 6.45979 65.613 10.109 65.613H66.3349V8.36928H15.4267ZM84.5267 60.1735V63.9195C84.5267 64.37 84.3676 64.8001 84.0855 65.1151C83.8064 65.4335 83.4224 65.613 83.0262 65.613H78.954C78.5548 65.613 78.1737 65.4335 77.8916 65.1151C77.6095 64.8001 77.4535 64.37 77.4535 63.9195V60.1735H84.5267ZM0.502931 58.2564C0.514934 58.5274 0.572029 58.7543 0.656055 58.9406C0.743083 59.1303 0.857146 59.2793 0.983186 59.3978C0.707098 59.1099 0.526938 58.7069 0.502931 58.2564ZM84.5267 56.7865H77.4535V20.5422H84.5267V56.7865ZM28.0068 28.3323C25.576 28.4034 23.6224 30.649 23.6224 33.4128V46.4798C23.6224 49.2843 25.639 51.5603 28.1238 51.5603H29.9394V54.0396C29.9394 54.9744 30.6116 55.7331 31.4398 55.7331C32.2681 55.7331 32.9403 54.9744 32.9403 54.0396V51.5603H48.8574V54.0396C48.8574 54.9744 49.5296 55.7331 50.3579 55.7331C51.1862 55.7331 51.8584 54.9744 51.8584 54.0396V51.5603H53.0737C55.5615 51.5603 57.5751 49.2843 57.5751 46.4798V33.4128C57.5751 30.6558 55.6334 28.4136 53.2087 28.3323V23.3297C53.2087 21.9816 52.7346 20.6912 51.8913 19.7361C51.0481 18.7843 49.9016 18.2492 48.7072 18.2492C44.4639 18.2492 36.7516 18.2492 32.5082 18.2492C31.3138 18.2492 30.1674 18.7843 29.3241 19.7361C28.4808 20.6912 28.0068 21.9816 28.0068 23.3297V28.3323ZM12.4258 3.387V47.689H9.76698C7.35122 47.689 5.15148 48.7356 3.50095 50.446V9.78844C3.50095 8.08816 4.09808 6.4624 5.16042 5.2634C6.22576 4.06101 7.66621 3.387 9.16969 3.387H12.4258ZM53.0737 48.1733H28.1238C27.2956 48.1733 26.6234 47.4146 26.6234 46.4798V33.4128C26.6234 32.4746 27.2956 31.7193 28.1238 31.7193H29.1171C29.9454 31.7193 30.6176 32.4746 30.6176 33.4128V41.8938C30.6176 42.8286 31.2898 43.5873 32.1181 43.5873H48.9924C49.8207 43.5873 50.4929 42.8286 50.4929 41.8938V33.4128C50.4929 32.4746 51.1651 31.7193 51.9934 31.7193H53.0737C53.9019 31.7193 54.5741 32.4746 54.5741 33.4128V46.4798C54.5741 47.4146 53.9019 48.1733 53.0737 48.1733ZM50.2077 28.7455V23.3297C50.2077 22.8792 50.0517 22.449 49.7696 22.1307C49.4875 21.8157 49.1064 21.6362 48.7072 21.6362H32.5082C32.1091 21.6362 31.728 21.8157 31.4459 22.1307C31.1638 22.449 31.0077 22.8792 31.0077 23.3297V28.7997C32.5472 29.6058 33.6186 31.367 33.6186 33.4128V40.2003H47.4919V33.4128C47.4919 31.3196 48.6112 29.5245 50.2077 28.7455ZM78.3087 17.1552H83.6684C82.5821 14.5235 80.9885 10.6792 80.9885 10.6792L78.3087 17.1552Z" fill="url(#paint0_linear_36_129)"/>
<defs>
<linearGradient id="paint0_linear_36_129" x1="15.8157" y1="15.6195" x2="71.2041" y2="82.5118" gradientUnits="userSpaceOnUse">
<stop stop-color="#00A8CF"/>
<stop offset="1" stop-color="#0088A7"/>
</linearGradient>
</defs>
</svg>
