<svg width="104" height="104" viewBox="0 0 104 104" fill="none" xmlns="http://www.w3.org/2000/svg">
<path d="M102.12 42.9783H92.5976C92.0964 40.9735 91.094 37.4651 90.2169 35.4602C89.4651 33.706 87.9614 31.2 87.0843 29.6964L93.8506 22.9301C94.6024 22.1783 94.6024 21.0506 93.8506 20.2988L83.7012 10.1494C82.9494 9.39759 81.8217 9.39759 81.0699 10.1494L74.3036 16.9157C72.6747 15.9133 69.6675 14.2843 67.6627 13.4072C65.9084 12.6554 62.7759 11.9036 61.0217 11.4024C61.0217 8.39518 61.0217 1.87952 61.0217 1.87952C61.0217 0.877108 60.1446 0 59.1422 0H44.8578C43.8554 0 42.9783 0.877108 42.9783 1.87952V11.4024C40.9735 11.9036 37.5904 12.906 35.5855 13.6578C33.5807 14.5349 31.5759 15.5373 29.6964 16.7904L22.9301 10.0241C22.1783 9.27229 20.9253 9.27229 20.2988 10.0241L10.1494 20.1735C9.39759 20.9253 9.39759 22.053 10.1494 22.8048L16.9157 29.5711C15.6627 31.5759 14.5349 33.706 13.5325 35.9614C12.6554 38.2169 11.9036 40.4723 11.4024 42.853H1.87952C0.877108 42.853 0 43.7301 0 44.7325V59.0169C0 60.0193 0.877108 60.8964 1.87952 60.8964H11.4024C11.9036 63.2771 12.6554 65.6578 13.6578 67.9133C14.5349 70.0434 15.6627 72.1735 16.9157 74.1783C16.1639 74.8048 15.2867 75.8072 14.0337 76.9349L10.1494 80.8193C9.39759 81.5711 9.39759 82.6988 10.1494 83.4506L20.2988 93.6C21.0506 94.3518 22.3036 94.3518 22.9301 93.6L29.6964 86.8337C31.5759 88.0868 33.5807 89.0892 35.5855 89.9663C37.9663 90.9687 40.4723 91.8458 42.9783 92.347V102.12C42.9783 103.123 43.8554 104 44.8578 104H59.1422C60.1446 104 61.0217 103.123 61.0217 102.12V92.5976C63.5277 92.0964 65.9084 91.2193 68.2892 90.2169C70.4193 89.3398 72.4241 88.2121 74.3036 87.0843L81.0699 93.8506C81.8217 94.6024 82.9494 94.6024 83.7012 93.8506L93.8506 83.7012C94.6024 82.9494 94.6024 81.8217 93.8506 81.0699L87.0843 74.3036C88.588 71.9229 89.841 69.4169 90.8434 66.7855C91.5952 64.906 92.0964 62.9012 92.5976 60.8964H102.12C103.123 60.8964 104 60.0193 104 59.0169V44.8578C104 43.8554 103.123 42.9783 102.12 42.9783ZM100.241 57.2627H91.094C90.2169 57.2627 89.4651 57.8892 89.2145 58.7663C88.8386 61.0217 88.212 63.2771 87.3349 65.5325C86.2072 68.2892 84.8289 71.0458 83.0747 73.5518C82.5735 74.3036 82.6988 75.306 83.3253 75.9325L89.841 82.4482L82.3229 89.9663L75.9325 83.3253C75.306 82.6988 74.3036 82.5735 73.5518 83.0747C71.4217 84.5783 69.1663 85.706 66.9108 86.7084C64.2795 87.8361 61.6482 88.588 58.8916 89.0892C58.0145 89.2145 57.388 90.0916 57.388 90.9687V100.116H46.8627V90.9687C46.8627 90.0916 46.2361 89.3398 45.359 89.0892C42.6024 88.588 39.8458 87.7108 37.2145 86.5831C34.959 85.5807 32.7036 84.3277 30.6988 82.9494C29.947 82.4482 28.9446 82.5735 28.3181 83.2L21.8024 89.7157L14.2843 82.1976C16.4145 80.0675 20.5494 75.9325 20.8 75.8072L20.9253 75.6819C21.4265 75.0554 21.5518 74.053 21.0506 73.4265C19.547 71.2964 18.294 68.9157 17.2916 66.5349C16.2892 64.0289 15.412 61.3976 15.0361 58.7663C14.9108 57.8892 14.0337 57.2627 13.1566 57.2627H4.00964V46.7374H12.906C13.9084 46.8627 14.7855 46.2361 15.0361 45.2337C15.5373 42.6024 16.2892 39.9711 17.2916 37.5904C18.294 35.0843 19.547 32.8289 21.1759 30.5735C21.6771 29.8217 21.5518 28.8193 20.9253 28.1928L14.4096 21.6771L21.9277 14.159L28.4434 20.6747C29.0699 21.3012 30.0723 21.4265 30.8241 20.9253C32.8289 19.547 35.0843 18.294 37.3398 17.2916C39.8458 16.1639 45.4843 14.7855 45.6096 14.7855C46.4867 14.5349 46.988 13.7831 46.988 12.906V3.75904H57.5133V11.1518C57.5133 13.1566 57.5133 14.6602 59.1422 14.7855C60.0193 15.0361 64.4048 16.0386 66.5349 16.9157C69.041 17.9181 73.8024 20.8 73.8024 20.9253C74.5542 21.4265 75.5566 21.3012 76.0578 20.6747L82.5735 14.159L90.0916 21.6771L83.3253 28.0675C82.6988 28.694 82.5735 29.6964 83.0747 30.4482C83.0747 30.4482 85.706 34.7084 86.7084 36.9639C87.8361 39.4699 89.2145 45.2337 89.2145 45.359C89.4651 46.2361 90.2169 46.7374 91.094 46.7374H100.241V57.2627ZM52 21.4265C35.2096 21.4265 21.4265 35.0843 21.4265 52C21.4265 68.9157 35.2096 82.5735 52 82.5735C68.7904 82.5735 82.5735 68.7904 82.5735 52C82.5735 35.2096 68.7904 21.4265 52 21.4265ZM52 78.8145C37.2145 78.8145 25.1855 66.7855 25.1855 52C25.1855 37.2145 37.2145 25.1855 52 25.1855C66.7855 25.1855 78.8145 37.2145 78.8145 52C78.8145 66.7855 66.7855 78.8145 52 78.8145ZM52 35.8361C43.1036 35.8361 35.8361 43.1036 35.8361 52C35.8361 60.8964 43.1036 68.1639 52 68.1639C60.8964 68.1639 68.1639 60.8964 68.1639 52C68.1639 43.1036 60.8964 35.8361 52 35.8361ZM52 64.4048C45.1084 64.4048 39.5952 58.7663 39.5952 52C39.5952 45.2337 45.2337 39.5952 52 39.5952C58.7663 39.5952 64.4048 45.2337 64.4048 52C64.4048 58.7663 58.8916 64.4048 52 64.4048Z" fill="white" fill-opacity="0.15"/>
</svg>
