<svg width="111" height="111" viewBox="0 0 111 111" fill="none" xmlns="http://www.w3.org/2000/svg">
<circle cx="55.5" cy="55.5" r="55.5" fill="url(#paint0_linear_71_58209)"/>
<path d="M56.0377 41.7684C48.1624 41.7684 41.7686 48.1622 41.7686 56.0375C41.7686 63.9129 48.1624 70.3067 56.0377 70.3067C63.913 70.3067 70.3069 63.9129 70.3069 56.0375C70.3069 48.1622 63.913 41.7684 56.0377 41.7684ZM56.0377 64.1468C51.5932 64.1468 47.9285 60.482 47.9285 56.0375C47.9285 51.593 51.5932 47.9283 56.0377 47.9283C60.4822 47.9283 64.147 51.593 64.147 56.0375C64.147 60.482 60.4822 64.1468 56.0377 64.1468Z" fill="white"/>
<path d="M90.0339 52.9965H83.3282C81.9247 40.2868 71.7881 30.1502 59.0784 28.7467V22.041C59.0784 20.3256 57.6749 19 56.0374 19C54.322 19 52.9965 20.4035 52.9965 22.041V28.7467C40.2868 30.1502 30.1502 40.2868 28.7467 52.9965H22.041C20.3256 52.9965 19 54.4 19 56.0374C19 57.7529 20.4035 59.0784 22.041 59.0784H28.7467C30.1502 71.7881 40.2868 81.9247 52.9965 83.3282V89.9559C52.9965 91.6713 54.4 92.9969 56.0374 92.9969C57.7529 92.9969 59.0784 91.5934 59.0784 89.9559V83.3282C71.7881 81.9247 81.9247 71.7881 83.3282 59.0784H89.9559C91.6713 59.0784 92.9969 57.6749 92.9969 56.0374C93.0749 54.322 91.6713 52.9965 90.0339 52.9965ZM56.0374 77.4022C44.2634 77.4022 34.6727 67.8114 34.6727 56.0374C34.6727 44.2634 44.2634 34.6727 56.0374 34.6727C67.8114 34.6727 77.4022 44.2634 77.4022 56.0374C77.4022 67.8114 67.8114 77.4022 56.0374 77.4022Z" fill="white"/>
<defs>
<linearGradient id="paint0_linear_71_58209" x1="19.5345" y1="25.127" x2="110.144" y2="111.887" gradientUnits="userSpaceOnUse">
<stop stop-color="#00A8CF"/>
<stop offset="1" stop-color="#0088A7"/>
</linearGradient>
</defs>
</svg>
